<?xml version="1.0" encoding="utf-8"?>
<!-- Generator: Adobe Illustrator 22.1.0, SVG Export Plug-In . SVG Version: 6.00 Build 0)  -->
<svg version="1.1" id="Ebene_1" xmlns="http://www.w3.org/2000/svg" xmlns:xlink="http://www.w3.org/1999/xlink" x="0px" y="0px"
	 viewBox="0 0 90.003 90" style="enable-background:new 0 0 90.003 90;" xml:space="preserve">
<style type="text/css">
	.st0{fill:#006C66;}
</style>
<path class="st0" d="M1.26,44.999c0-24.119,19.621-43.742,43.741-43.742c24.119,0,43.742,19.623,43.742,43.742
	c0,24.121-19.623,43.744-43.742,43.744C20.881,88.743,1.26,69.12,1.26,44.999 M0,44.999C0,69.813,20.187,90,45.001,90
	s45.002-20.187,45.002-45.001C90.003,20.188,69.815,0,45.001,0S0,20.188,0,44.999 M74.567,52.32
	c-1.224,1.139-2.961,1.157-4.366,2.081c-0.644,0.646-0.48,1.378-0.218,2.189c0.52,1.028,0.323,0.923-0.404,1.164
	c-1.696,0.565-1.676,2.421-3.717,2.11c-0.116,0.035-0.593-0.204-0.311,0.138c0.218,0.262,0.311,0.104,0.743,0.156
	c0.726,0.035,0.998-0.265,1.509-0.612c0.728-0.612,0.64-0.842,1.534-1.272c0.216-0.051,0.744-0.209,1.039-0.104
	c0.198,0.182,0.204,0.187,0.236,0.351c-0.116,0.497-0.842,0.911-1.119,1.084c0.382,0.279,1.095,0.751,0.981,1.146
	c-0.164,0.261-0.157,0.304-0.445,0.445c-0.404,0.195-1.21,0.165-1.971-0.399c-0.116,0.036-0.243-0.223-0.569,0.085
	c0.743,0.762,1.779,0.589,1.935,0.746c0.155,0.155-0.554,1.075-0.586,1.273c-0.497,1.324,0.113,2.542-0.154,3.915
	c-0.163,1.074-0.485,1.585-1.426,2.263c-1.725,1.194-2.935,1.539-4.872,1.85c-5.077,0.348-8.281-1.394-11.937-4.125
	c-3.657-2.732-5.055-4.183-6.197-5.721c-0.017-0.629,0.446-1.106,0.051-1.787c-0.331,0.117-0.298,0.546-0.497,0.796
	c-0.282,0.398-0.959,0.694-1.44,0.644c-1.504-0.512-1.588-2.281-2.529-3.291c-2.018-1.984-2.58-4.846-1.505-7.244
	c0.38-0.744,1.057-1.455,1.82-1.719c0.94-0.15,2.05-0.15,2.663,0.761c0.726,0.693,1.174,1.818,1.354,2.809
	c0.299,0.482-0.064,1.027,0.43,1.425c0.859,0.081,1.604,0.296,2.432-0.231c0.612,0.08,0.694,0.76,1.158,1.056l0.828,0.497
	c0.875,0.363,2,0.363,2.744-0.282c1.39-1.421,1.086-2.884,1.565-4.454c1.326-1.173,2.205-2.854,2.19-4.493
	c-0.083-1.009-0.446-2.05-1.043-3.058c0.099-0.596,0.429-1.042,0.629-1.573c0.166-0.099,0.38-0.099,0.561-0.13
	c1.473-0.315,2.813-1.655,3.391-3.061l0.132-0.131c1.686-0.116,3.788-0.713,4.764-2.483c0.198-0.76,1.059-0.198,1.587-0.378
	c0.892-0.051,1.787-0.546,2.464-1.126c0.198-0.067,0.347,0.15,0.465,0.247c0.395,1.324,1.124,2.598,1.536,3.938
	c0.513,1.008,0.696,1.967,0.513,2.994c0.216,1.569,1.108,3.041,1.736,4.629c0.629,1.671,1.604,3.359,2.316,5.079
	C74.699,51.21,74.997,51.757,74.567,52.32 M74.911,49.432c-1.19-2.746-2.529-5.109-3.505-7.873c-0.695-0.991-0.297-2.05-0.38-3.109
	c-0.446-1.653-1.143-2.927-1.802-4.531c-0.183-0.463,0.33-0.596,0.513-0.925c0.298-0.811,0.083-1.722-0.283-2.499
	c-0.148-0.445,0.382-0.76,0.283-1.222c-0.018-0.711-0.645-1.192-1.143-1.572c-0.743-1.075-1.09-1.638-2.017-2.614v-0.183
	c0.462-0.411,0.843-1.122,0.828-1.735c-0.183-0.693-0.331-1.338-0.995-1.82c-1.056-0.595-2.13,0.332-2.973,0.812
	c-0.234,0.164-0.35,0.33-0.681,0.299c-0.214-0.077-0.436-0.157-0.661-0.238c-0.215,0.246-0.483,0.508-0.812,0.768l1.027,0.417
	c0.038,0.028,0.051,0.048,0.051,0.082c0,0.02-0.007,0.053-0.012,0.079c-0.071,0.062-2.378,2.086-2.378,2.086
	c-0.007,0.003-4.158,4.107-4.158,4.107c0,0.002-1.19,1.209-1.19,1.209c-0.007,0.006-3.695,4.257-3.695,4.257
	c-1.93,2.238-4.78,5.91-6.496,8.598c-0.891,1.229-1.782,2.596-2.611,3.887c-0.09,0.144-0.259,0.132-0.527,0.101
	c-0.183-0.022-0.37-0.041-0.54,0.017h0.008l-0.037,0.011c0.009-0.004,0.02-0.007,0.029-0.011c-0.937,0.104-1.619,0.417-2.349,1.077
	c-0.948,1.117-1.424,2.469-1.424,3.927c0,1.003,0.229,2.06,0.688,3.121c-0.194,0.568-0.64,1.07-1.04,1.514l-0.222,0.25l-0.283,0.279
	c-0.186,0.175-0.396,0.375-0.549,0.568l-0.014,0.019l-0.009,0.023c-0.019,0.062-0.028,0.18,0.155,0.268L35.75,58.9l0.05-0.012
	c0.874-0.208,1.424-0.865,1.957-1.501c0,0,0.337-0.386,0.385-0.443c0.077-0.014,0.142,0.029,0.258,0.128
	c0.061,0.05,0.129,0.098,0.208,0.135v0.044c0,0-0.011,0.282-0.014,0.347c-2.069,2.043-3.753,3.197-5.956,4.491l-0.367,0.216
	l0.425,0.043c0.86,0.085,1.675-0.398,2.464-0.865l0.947-0.522c0.877-0.448,1.688-1.133,2.476-1.793c0,0,0.712-0.592,0.788-0.654
	c0.074,0.011,0.156,0.106,0.221,0.183c0,0,0.047,0.049,0.078,0.082c0.014,0.026,0.66,1.306,0.699,1.382
	c-0.148,0.608-0.213,1.215-0.213,1.824c0,1.324,0.287,2.641,0.569,3.932c0.277,1.271,0.564,2.584,0.564,3.873
	c0,0.086-0.003,0.169-0.004,0.254c0,0.397-0.438,0.927-0.8,1.093c-0.828,0.143-1.826,0.15-2.884,0.16
	c-1.297,0.012-2.64,0.023-3.67,0.303c-0.334,0.039-0.718,0.148-1.09,0.252c-0.365,0.101-0.742,0.209-1.092,0.256l-0.036,0.005
	l-0.039,0.03l-0.127,0.087c-0.117,0.075-0.263,0.165-0.299,0.339c-0.001,0.012-0.003,0.029-0.003,0.047
	c0,0.099,0.045,0.207,0.119,0.283c0.072,0.074,0.162,0.108,0.255,0.099c0.311,0,0.661-0.126,1.001-0.25
	c0.235-0.085,0.482-0.175,0.709-0.214c2.155-0.368,4.516-0.294,6.116-0.165c0.79-0.014,2.087-0.039,2.554-1.159
	c0.169-0.456,0.226-0.879,0.226-1.285c0-0.449-0.069-0.882-0.141-1.325l-0.141-1.091c-0.095-0.665-0.235-1.328-0.372-1.972
	c-0.243-1.142-0.492-2.316-0.492-3.504c0-0.24,0.013-0.483,0.035-0.725c0.023-0.031,0.048-0.068,0.078-0.073
	c0.07-0.009,0.192,0.089,0.289,0.165c0.111,0.088,0.225,0.172,0.349,0.203c0.144,0.109,0.305,0.139,0.453,0.158
	c0.206,0.028,0.317,0.052,0.381,0.212c0.093,1.045,0.454,2.125,0.803,3.169c0.24,0.72,0.49,1.463,0.649,2.188
	c0.284,1.273,0.571,2.562,0.571,3.833c0,0.755-0.101,1.506-0.368,2.244c-0.552,1.006-1.761,1.011-2.928,1.015h-0.348l-2.863-0.173
	c-2.455-0.179-4.992-0.361-7.595,0.06c0.019-0.003-0.581,0.062-0.581,0.062c-0.323,0.048-0.625,0.087-0.95,0.011
	c-0.121-0.098-0.219-0.265-0.219-0.44c0-0.056,0.01-0.113,0.033-0.169c0.465-1.026,0.699-1.954,0.699-2.774
	c0-0.666-0.154-1.26-0.459-1.782c-0.673-1.29-1.412-2.184-2.324-2.809c-1.119-1.118-2.074-2.108-2.922-3.075
	c-0.497-0.062-0.801-0.16-0.834-0.17l-0.111-0.038l-0.498,0.612c0.645,0.612,1.241,1.224,1.97,1.885
	c1.107,0.597,2.002,1.671,2.794,2.4c0.96,1.123,1.19,2.314,0.992,3.637c-0.132,1.57-1.57,2.25-2.548,3.292
	c-0.395,0.744-0.644,1.637-0.099,2.332c0.349,0.926,1.835,0.758,2.018,1.521c0.409,1.681,3.324,2.651,3.893,2.69
	c0.565,0.04,1.153,0.666,1.153,0.666c1.158,0.844,2.678,0.641,3.478,0.518c0.797-0.121,2.227,0.524,3.12,0.394
	c1.338-0.531,2.432-0.282,3.821-0.399c4.366,0.067,9.326-0.032,13.791,0.529c0.828-0.099,1.82,0.547,2.598,0.15
	c0.199-0.332,0.05-0.612,0-0.894c-2.133-3.356-2.452-7.123-1.243-10.78l0.807,0.047c2.895,0.315,5.529-0.061,8.472-1.764
	c1.472-0.81,2.245-2.707,2.179-4.08c-0.049-0.892-0.36-1.946-0.208-2.889c0.05-0.421,0.33-1.06,0.692-1.26
	c0.155-0.088,0.697-0.455,0.867-0.926c0.28-0.764-0.32-1.126-0.492-1.229c0.466-0.191,0.919-1.147,0.488-1.891
	c-0.276-0.295-0.598-1.456-0.632-1.837c-0.099-0.546-0.116-1.107,0.399-1.456c1.158-0.61,2.248-0.761,3.454-1.291
	c0.828-0.346,1.257-1.205,1.224-1.982L74.911,49.432L74.911,49.432z M27.631,76.701c-0.147,0.264-0.127,0.444-0.194,0.762
	c-0.08,0.146-0.494-0.051-0.626-0.132c-0.513-0.277-0.479-0.136-0.626-0.612c-0.083-0.319-0.074-0.693,0.456-0.97
	c0.33-0.188,0.99-0.412,1.205,0C27.913,76.026,27.583,76.384,27.631,76.701 M30.453,80.274c-0.677,0.016-1.153-0.353-1.467-1.153
	c-0.317-1.018-0.422-1.917-0.204-2.963c0.07-0.132,0.22-0.217,0.317-0.174l0.945-0.322c0.318-0.129,0.576-0.172,0.879-0.101
	l0.192,0.189c-0.014,0.554-0.15,0.96-0.164,1.471c-0.056,1.28-0.164,1.662,0.206,2.881C31.02,80.424,30.748,80.27,30.453,80.274
	 M69.318,32.703c-0.092,0.097-0.209,0.218-0.362,0.176c-0.352-0.245-0.219-0.558-0.197-0.854c0.071-0.071,0.082-0.113,0.197-0.113
	c0.166-0.028,0.258,0.095,0.32,0.183C69.38,32.287,69.391,32.504,69.318,32.703 M42.481,48.191c2.317-4.152,5.13-7.757,8.139-11.462
	l4.217-4.794c3.01-3.209,6.334-6.501,10.023-9.046c0.463-0.266,0.666-0.809,1.143-0.427l0.434,0.4
	c0.293,0.33,0.037,1.268-0.26,1.532c-0.237,0.194-0.468,0.386-0.697,0.575c0.719,0.713,1.755,2.066,2.608,2.943
	c0.375,0.386,0.26,0.786,0.93,1.098c0.335,0.156,0.431,0.522,0.231,0.836c-0.594,0.761-1.586,0.645-2.365,0.844
	c-2.893,0.644-5.232,1.472-8.433,3.026c-2.563,1.356-4.613,2.861-6.469,5.193c-0.708,0.876-1.503,1.539-2.098,2.595
	c-1.686,2.168-3.026,4.202-4.367,6.434c-0.479,0.704-0.637,1.052-1.307,1.689c-0.325,0.309-0.616-0.337-0.82-0.562
	c-0.023-0.026-0.037-0.053-0.053-0.079c-0.069,0.009-0.141-0.005-0.21-0.051C42.946,48.704,42.382,48.605,42.481,48.191
	 M67.992,32.155c-0.044,0.802-1.114,1.465-2.009,1.713c-0.381,0.06-0.733,0.037-1.071,0.037c-0.087-0.062-0.188-0.137-0.175-0.223
	c0.058-0.38,0.118-0.603,0.146-0.947l0.221-0.161c0.791-0.16,1.758-0.33,2.55-0.541C67.772,32.058,67.918,32.047,67.992,32.155
	 M59.68,34.243l0.143-0.183c0.648-0.308,1.251-0.545,1.97-0.753l0.862-0.225c0.228-0.208,0.63-0.376,0.862-0.083
	c0.013,1.117-0.821,2.456-2.054,2.972c-0.389,0.169-0.907,0.225-1.367,0.337c-0.115-0.098-0.49,0.111-0.603-0.168
	C59.564,35.58,59.78,34.744,59.68,34.243 M50.851,54.032c-0.231,0.133-2.23-0.629-1.997-0.417c-0.475-0.513,0.301-0.686-1.463-1.347
	l-0.428,0.044c-0.054,0.051-0.21,0.13-0.369-0.09c-0.017-0.265,0.332-0.227,0.443-0.558c0.631-1.421,0.284-2.522,0.222-3.992
	l0.466-1.207c0.887-1.068,0.884-1.222,1.485-1.801c0.601-0.844,0.726-0.908,1.53-1.601c0.131-0.115,0.375-0.205,0.532-0.07
	c0.379,0.296,0.399,0.49,0.511,0.869c0.189,1.408-0.662,2.371-1.688,3.131c-0.729,0.629-1.421,1.604-1.264,2.565l0.063,0.064
	c0.331-0.28,0.75-0.444,0.891-0.791c0.555-1.238,2.049-1.802,2.884-2.876c0.364-0.646,0.141-1.765,0-2.509
	c-0.003,0.021,1.096-0.52,0.798-0.326c0.523,0.215,0.458,0.589,0.71,1.067c0.49,1.242,0.448,2.363-0.309,3.438l-2.085,2.599
	C51.75,51.55,52.116,53.255,50.851,54.032 M53.602,41.45c-0.502,0.23-1.018,0.281-1.573,0.024c-0.141-0.192-0.599-0.347-0.417-0.629
	c0.402-0.651,1.084-1.19,1.502-1.83l0.194-0.104c0.849-1.023,2.185-1.882,3.451-2.652l0.764-0.332
	c0.167-0.167,0.558-0.512,0.71-0.155c0.028,1.335-0.536,2.759-1.808,3.703c-0.771,0.57-1.101,0.46-1.79,0.502l-0.354,0.64
	C54.197,40.935,53.92,41.257,53.602,41.45 M46.584,49.06l-0.035,0.942c-0.085,0.861-0.482,1.852-1.291,2.333
	c-0.484-0.115-0.31-0.696-0.43-1.091c0.309-0.86,0.914-1.571,1.411-2.331c0.068-0.051,0.138-0.084,0.206-0.051L46.584,49.06
	L46.584,49.06z M35.07,81.851c-0.338,0.346-0.527,0.184-0.87,0.216c-0.973-0.263-1.548-0.686-1.824-1.788
	c-0.356-1.538-0.344-3.227,0-4.797l0.158-0.122c0.684-0.079,1.719-0.217,2.001-0.062c0.281,0.155-0.302,2.92-0.302,2.92
	c-0.019,0.547,0.25,1.95,0.499,2.678C34.785,81.004,35.344,81.567,35.07,81.851 M42.13,80.142c-0.103,0.988-1.343,1.856-1.948,2.032
	c-0.608,0.174-2.422,0.087-2.944-0.093c-0.521-0.179-1.794-2.667-1.646-3.959c0-1.065,0.287-2.757,0.713-2.894
	c0.428-0.134,1.561-0.065,1.561-0.065c0.474-0.031,0.832,0.082,1.249,0.13c0.296,0.113,0.087,0.486,0.191,0.696
	c0.134,0.55,0.164,1.147,0.506,1.697c0.476,0.922,1.352,1.473,2.215,1.795C42.221,79.659,42.114,79.9,42.13,80.142 M40.739,75.969
	c0-0.2,0.011-0.281,0.163-0.345h0.817c0.726,0.024,1.66,0.263,2.34-0.439c0.39,0.014,0.424,0.477,0.528,0.837
	c0.093,0.501,0.07,0.82,0.07,1.27c-0.163,0.355-0.344,0.899-0.714,1.126c-0.588,0.277-1.177,0.225-1.741,0
	C41.35,77.914,40.728,77.108,40.739,75.969 M57.484,72.065c-1.093,3.787-1.613,5.741,0.093,9.644c0.016,0.15,0.18,0.631,0,0.697
	c-1.886-0.38-2.388-0.542-4.158-0.673c-1.636-0.283-4.355,0.173-6.174,0.156c-1.421,0.049-2.861,0.098-4.349,0.281
	c-0.446-0.232-0.101-0.729-0.065-1.059c0.164-0.513,0.18-0.776,0.231-1.372c0.231-0.249,0.513-0.117,0.794-0.232
	c0.957-0.148,1.77-0.992,2-1.886c0.298-0.941-0.032-1.984-0.462-2.878c-0.083-0.263-0.446-0.461-0.299-0.725
	c1.175-2.201,0.348-4.434-0.048-6.583c-0.414-1.524-1.042-3.209-1.292-4.814c0.051-0.165-0.164-0.546,0.198-0.578l0.135,0.032
	c1.255,1.524,4.854,4.743,6.201,5.791c1.348,1.045,4.829,3.075,7.093,3.621C57.597,71.667,57.565,71.817,57.484,72.065
	 M67.042,39.137c-0.313-0.397-0.761-0.578-1.257-0.546c-1.885,0.283-3.34,1.837-4.845,2.827c-0.315,0.2-0.711,0.25-0.959,0.498
	c0.116,0.132,0.282,0.147,0.461,0.147c1.457-0.677,2.715-1.966,4.219-2.611c0.594-0.148,1.124-0.462,1.719-0.166
	c0.364,0.182,0.43,0.728,0.86,0.695C67.422,39.7,67.273,39.436,67.042,39.137 M66.925,41.685c-0.115-0.365-0.099-0.959-0.545-1.043
	c-0.099,0.231,0,0.481-0.099,0.696c-0.132,0.164-0.363,0.363-0.628,0.296c-1.82,0.115-3.176,1.722-4.73,2.547
	c-0.529,0.298-1.125,0.464-1.686,0.613c-0.052,0.082-0.033,0.198,0.047,0.247c1.723,0.183,3.424,0.348,5.13,0.528l1.899-0.214
	c0.051-0.248-0.246-0.462-0.198-0.744c0.217-0.776,0.282-1.621,0.067-2.349C66.332,41.867,66.894,42.163,66.925,41.685
	 M65.597,44.622c-0.234,0.344-0.603,0.045-0.93,0.085c-0.744-0.085-2.001,0.089-2.822-0.013c-0.124-0.072-0.216-0.201-0.141-0.317
	c0.125-0.203,0.468-0.217,0.685-0.376c0.899-0.562,1.844-1.096,2.868-1.341c0.185-0.028,0.34,0.129,0.372,0.259
	C65.752,43.395,65.676,44.16,65.597,44.622 M67.887,50.21c0,0-0.066,0.082-0.093,0.113c-0.019,0.376-0.095,0.734-0.171,1.08
	c-0.081,0.372-0.16,0.733-0.16,1.096c0,0.402,0.099,0.808,0.404,1.223l0.051,0.03c0.21,0.125,0.429,0.252,0.666,0.204
	c0.8-0.459,1.654-0.832,2.479-1.193c0,0,1.049-0.469,1.093-0.487c0.045-0.109,0.075-0.241,0.075-0.338
	c0-0.054-0.008-0.096-0.026-0.117c-0.005-0.004-0.01-0.014-0.039-0.007c-1.134,0.29-1.747,0.654-2.394,1.043
	c0,0-0.746,0.427-0.753,0.432c-0.444,0.151-0.812,0.082-1.052-0.215c-0.047-0.175-0.068-0.353-0.068-0.533
	c0-0.405,0.101-0.818,0.199-1.223c0.086-0.356,0.168-0.691,0.182-1.01c-0.016-0.199-0.073-0.25-0.181-0.291
	C68.018,50.026,67.948,50.124,67.887,50.21 M42.119,49.871c-0.132-0.25-0.478-0.464-0.777-0.513
	c-0.528-0.166-1.074,0.032-1.488,0.347c-1.058,1.075-1.109,2.416-1.027,3.637c0.133,1.274,0.976,2.631,2.266,3.029
	c0.779,0.314,0.413,1.042,0.878,1.521c0.18,0.132,0.414,0.247,0.628,0.198c0.43-0.016,0.511-0.48,0.595-0.743l-0.099-0.233
	c-0.332-0.313-0.364,0.348-0.595,0.364c-0.183,0.099-0.414-0.065-0.529-0.232c-0.051-0.958-0.976-1.439-1.738-1.886
	c-1.306-1.19-1.206-2.762-0.825-4.25c0.247-0.562,0.609-1.322,1.322-1.453c0.33,0.015,0.66,0.246,0.891,0.479
	c0.795,1.056-0.099,2.366-0.015,3.488c0.083,0.381,0.198,0.546,0.53,0.761c0.181,0.132,0.413,0.099,0.579-0.016
	c0.216-0.43-0.497-0.481-0.596-0.844C42.086,52.251,42.715,51.093,42.119,49.871 M25.95,58.816
	c-2.354,1.092-3.073,3.897-3.104,4.015l-0.062,0.249l0.243,0.083c0.093,0.03,2.279,0.747,4.947-0.564
	c2.689-1.32,3.242-3.983,3.265-4.096l0.056-0.282l-0.285-0.045C30.9,58.156,28.262,57.742,25.95,58.816 M26.184,59.321
	c1.72-0.798,3.684-0.705,4.425-0.633c-0.211,0.682-0.925,2.452-2.881,3.412c-1.962,0.961-3.643,0.731-4.258,0.598
	C23.697,62.019,24.457,60.124,26.184,59.321 M28.298,53.529c-2.359,1.066-3.23,3.843-3.266,3.961l-0.08,0.266l0.263,0.081
	c0.093,0.03,2.272,0.679,4.949-0.601c2.701-1.291,3.274-3.865,3.297-3.974l0.058-0.282l-0.281-0.05
	C33.131,52.911,30.619,52.481,28.298,53.529 M28.527,54.037c1.713-0.775,3.583-0.674,4.299-0.598
	c-0.22,0.664-0.95,2.362-2.903,3.295c-1.946,0.929-3.616,0.754-4.253,0.634C25.941,56.675,26.802,54.817,28.527,54.037
	 M31.362,48.438c-2.361,1.037-3.386,3.788-3.428,3.905l-0.103,0.283l0.289,0.08c0.092,0.027,2.267,0.611,4.949-0.64
	c2.713-1.261,3.307-3.744,3.332-3.851l0.063-0.279l-0.282-0.055C36.083,47.86,33.695,47.412,31.362,48.438 M31.587,48.948
	c1.705-0.75,3.481-0.644,4.177-0.562c-0.233,0.649-0.978,2.268-2.929,3.176c-1.925,0.895-3.58,0.773-4.245,0.669
	C28.908,51.526,29.865,49.705,31.587,48.948 M34.406,43.409c-2.364,1.012-3.539,3.738-3.587,3.851l-0.127,0.299l0.316,0.079
	c0.091,0.024,2.258,0.544,4.948-0.675c2.723-1.236,3.339-3.627,3.365-3.729l0.068-0.281l-0.282-0.06
	C39.013,42.873,36.753,42.408,34.406,43.409 M34.625,43.922c1.702-0.726,3.382-0.614,4.053-0.532
	c-0.241,0.634-1.003,2.182-2.953,3.065c-1.904,0.863-3.547,0.788-4.235,0.701C31.857,46.437,32.911,44.655,34.625,43.922
	 M38.62,38.377c-2.372,0.984-3.694,3.684-3.749,3.797l-0.155,0.32l0.344,0.074c0.093,0.02,2.253,0.474,4.951-0.715
	c2.734-1.207,3.37-3.508,3.395-3.606l0.074-0.276l-0.279-0.068C43.112,37.883,40.975,37.399,38.62,38.377 M38.832,38.893
	c1.692-0.703,3.282-0.587,3.93-0.497c-0.253,0.615-1.032,2.089-2.975,2.946c-1.898,0.837-3.523,0.803-4.228,0.733
	C35.982,41.345,37.124,39.603,38.832,38.893 M43.263,33.523c-2.374,0.957-3.848,3.631-3.911,3.744l-0.18,0.336l0.375,0.072
	c0.09,0.015,2.246,0.406,4.948-0.754c2.748-1.179,3.404-3.39,3.43-3.483l0.079-0.275l-0.276-0.071
	C47.643,33.07,45.63,32.568,43.263,33.523 M43.471,34.039c1.68-0.677,3.18-0.559,3.805-0.465c-0.264,0.598-1.059,2.004-3,2.834
	c-1.879,0.807-3.489,0.814-4.211,0.763C40.537,36.429,41.77,34.726,43.471,34.039 M48.221,28.934
	c-2.379,0.931-4.001,3.58-4.068,3.693l-0.215,0.353l0.409,0.065c0.09,0.014,2.239,0.34,4.948-0.79
	c2.759-1.15,3.434-3.268,3.462-3.358l0.084-0.273l-0.272-0.076C52.489,28.525,50.602,28.002,48.221,28.934 M48.424,29.453
	c1.666-0.651,3.081-0.531,3.68-0.434c-0.275,0.58-1.087,1.916-3.023,2.723c-1.852,0.772-3.448,0.823-4.195,0.789
	C45.417,31.779,46.736,30.115,48.424,29.453 M53.379,24.699c-2.385,0.906-4.155,3.53-4.229,3.64l-0.25,0.375l0.447,0.057
	c0.089,0.011,2.233,0.271,4.948-0.829c2.77-1.122,3.467-3.149,3.495-3.236l0.088-0.266l-0.268-0.086
	C57.536,24.331,55.772,23.79,53.379,24.699 M53.579,25.219c1.651-0.626,2.979-0.504,3.552-0.403
	c-0.287,0.563-1.116,1.829-3.044,2.61c-1.838,0.743-3.414,0.829-4.176,0.817C50.498,27.482,51.896,25.858,53.579,25.219
	 M58.62,20.904c-2.39,0.88-4.309,3.48-4.39,3.592l-0.286,0.392l0.483,0.05c0.09,0.009,2.227,0.203,4.95-0.868
	c2.779-1.091,3.498-3.027,3.527-3.111l0.093-0.263l-0.263-0.093C62.666,20.578,61.026,20.019,58.62,20.904 M58.811,21.426
	c1.634-0.601,2.883-0.477,3.43-0.372c-0.301,0.541-1.144,1.743-3.07,2.498c-1.812,0.713-3.368,0.836-4.149,0.842
	C55.665,23.626,57.141,22.043,58.811,21.426 M22.184,53.492c-0.07,0.089-1.705,2.213-1.874,4.77
	c-0.169,2.602,1.959,4.59,2.052,4.672l0.187,0.175l0.19-0.175c0.071-0.063,1.757-1.645,1.886-4.632
	c0.131-3.006-1.956-4.779-2.043-4.852l-0.221-0.186L22.184,53.492L22.184,53.492z M20.86,58.553c0-0.086,0.002-0.169,0.007-0.254
	c0.125-1.914,1.16-3.602,1.576-4.209c0.483,0.496,1.632,1.892,1.632,3.949c0,0.079-0.002,0.159-0.007,0.241
	c-0.094,2.193-1.108,3.568-1.523,4.045C22.072,61.82,20.86,60.351,20.86,58.553 M25.506,47.764
	c-0.056,0.062-1.387,1.529-1.956,3.639c-0.076,0.288-0.136,0.595-0.174,0.911c-0.306,2.524,1.516,4.592,1.595,4.681l0.18,0.201
	l0.209-0.177c0.072-0.06,1.793-1.555,2.142-4.452c0.352-2.931-1.52-4.741-1.599-4.817l-0.206-0.194L25.506,47.764L25.506,47.764z
	 M23.899,52.883c0-0.165,0.009-0.333,0.031-0.501c0.034-0.293,0.087-0.572,0.158-0.832c0.407-1.513,1.251-2.693,1.63-3.172
	c0.4,0.477,1.271,1.714,1.271,3.476c0,0.209-0.014,0.423-0.039,0.646c-0.254,2.112-1.306,3.422-1.747,3.892
	C24.81,55.871,23.899,54.501,23.899,52.883 M29.229,42.392c-0.06,0.055-1.456,1.357-2.166,3.453
	c-0.09,0.266-0.164,0.554-0.222,0.881c-0.443,2.441,1.074,4.588,1.14,4.681l0.168,0.235l0.23-0.181
	c0.074-0.057,1.832-1.461,2.399-4.276c0.573-2.85-1.085-4.699-1.156-4.775l-0.188-0.207L29.229,42.392L29.229,42.392z M27.32,47.625
	c0-0.261,0.02-0.532,0.072-0.803c0.052-0.297,0.117-0.559,0.198-0.799c0.504-1.488,1.398-2.565,1.804-3.002
	c0.318,0.45,0.945,1.523,0.945,2.997c0,0.333-0.034,0.687-0.11,1.058c-0.406,2.028-1.495,3.273-1.966,3.736
	C27.953,50.287,27.32,49.048,27.32,47.625 M33.322,37.371c-0.062,0.05-1.523,1.185-2.379,3.264
	c-0.102,0.245-0.187,0.523-0.268,0.848c-0.573,2.361,0.631,4.584,0.682,4.679l0.152,0.274l0.256-0.184
	c0.076-0.053,1.869-1.371,2.653-4.096c0.795-2.767-0.645-4.654-0.708-4.733l-0.169-0.218L33.322,37.371L33.322,37.371z
	 M31.083,42.797c0-0.384,0.039-0.784,0.136-1.182c0.072-0.298,0.151-0.549,0.24-0.769c0.602-1.461,1.541-2.436,1.972-2.831
	c0.237,0.406,0.663,1.298,0.663,2.504c0,0.454-0.06,0.953-0.212,1.483c-0.558,1.938-1.678,3.122-2.182,3.58
	C31.478,45.077,31.083,44.015,31.083,42.797 M37.755,32.698c-0.065,0.039-1.583,1.008-2.591,3.072
	c-0.113,0.234-0.215,0.493-0.314,0.816c-0.707,2.279,0.187,4.576,0.226,4.673l0.127,0.317l0.287-0.188
	c0.077-0.052,1.904-1.281,2.902-3.916c1.018-2.684-0.203-4.609-0.255-4.691l-0.151-0.228L37.755,32.698L37.755,32.698z
	 M35.139,38.451c0-0.544,0.064-1.125,0.242-1.698c0.093-0.296,0.183-0.532,0.282-0.738c0.705-1.44,1.693-2.318,2.143-2.67
	c0.171,0.354,0.433,1.049,0.433,1.991c0,0.569-0.096,1.222-0.369,1.936c-0.697,1.847-1.853,2.972-2.394,3.423
	C35.342,40.244,35.139,39.415,35.139,38.451 M42.5,28.365c-0.067,0.033-1.641,0.834-2.805,2.881c-0.125,0.22-0.241,0.47-0.361,0.783
	c-0.842,2.195-0.25,4.564-0.225,4.663l0.093,0.363l0.321-0.194c0.079-0.046,1.941-1.19,3.153-3.738
	c1.237-2.598,0.238-4.558,0.194-4.638l-0.127-0.242L42.5,28.365L42.5,28.365z M39.445,34.654c0-0.738,0.095-1.605,0.409-2.427
	c0.11-0.285,0.213-0.508,0.326-0.705c0.804-1.414,1.833-2.196,2.309-2.503c0.104,0.29,0.248,0.795,0.248,1.488
	c0,0.662-0.133,1.475-0.563,2.376c-0.841,1.768-2.033,2.825-2.604,3.264C39.512,35.804,39.445,35.277,39.445,34.654 M47.538,24.365
	c-0.07,0.028-1.693,0.666-3.022,2.689c-0.138,0.212-0.271,0.457-0.407,0.749c-0.973,2.112-0.686,4.553-0.674,4.655l0.05,0.406
	l0.361-0.195c0.081-0.045,1.976-1.101,3.403-3.56c1.454-2.51,0.678-4.502,0.645-4.586l-0.104-0.254L47.538,24.365L47.538,24.365z
	 M43.947,31.499c0-0.873,0.107-2.244,0.668-3.462c0.125-0.269,0.245-0.488,0.367-0.676c0.911-1.389,1.982-2.077,2.476-2.34
	c0.053,0.221,0.109,0.551,0.109,0.988c0,0.733-0.164,1.724-0.8,2.82c-0.978,1.687-2.202,2.679-2.811,3.104
	C43.952,31.806,43.947,31.665,43.947,31.499 M52.841,20.698c-0.069,0.021-1.741,0.497-3.233,2.496
	c-0.157,0.208-0.305,0.444-0.453,0.711c-1.11,2.031-1.121,4.543-1.121,4.65L48.035,29l0.402-0.196
	c0.082-0.042,2.013-1.013,3.651-3.384c1.672-2.419,1.12-4.445,1.095-4.529l-0.077-0.265L52.841,20.698L52.841,20.698z
	 M49.644,24.174c0.134-0.247,0.268-0.458,0.409-0.647c1.018-1.362,2.131-1.96,2.645-2.18c0.016,0.13,0.03,0.287,0.03,0.488
	c0,0.747-0.183,1.944-1.099,3.268c-1.111,1.606-2.371,2.538-3.013,2.947C48.675,27.234,48.884,25.561,49.644,24.174 M58.367,17.358
	c-0.072,0.011-1.784,0.33-3.447,2.297c-1.656,1.954-2.045,5.183-2.06,5.319l-0.056,0.483l0.443-0.197
	c0.084-0.037,2.051-0.922,3.902-3.208c1.886-2.329,1.557-4.382,1.541-4.467l-0.048-0.275L58.367,17.358L58.367,17.358z
	 M55.344,20.016c1.128-1.333,2.283-1.844,2.816-2.023c0.001,0.014,0.001,0.022,0.001,0.038c0,0.641-0.165,2.092-1.447,3.673
	c-1.238,1.529-2.54,2.401-3.215,2.791C53.68,23.505,54.186,21.383,55.344,20.016 M5.45,44.999c0,13.477,7.295,26.444,19.037,33.841
	l0.487,0.307l0.349-0.456c0.099-0.13,0.139-0.252,0.139-0.365c0-0.291-0.248-0.517-0.387-0.645l-0.679-0.653
	c-2.421-2.747-3.07-5.354-3.07-7.358c0-2.216,0.793-3.696,0.859-3.809l0.216-0.391l-0.297-0.334
	c-4.963-5.537-7.585-12.498-7.585-20.137c0-16.807,13.674-30.482,30.483-30.482c4.672,0,9.157,1.029,13.326,3.059l0.432,0.209
	l6.127-6.989l-0.68-0.379c-5.84-3.252-12.482-4.969-19.205-4.969C23.192,5.448,5.45,23.192,5.45,44.999 M6.707,44.999
	c0-21.114,17.178-38.293,38.295-38.293c6.247,0,12.414,1.548,17.895,4.451c-0.801,0.914-3.972,4.533-4.46,5.086
	c-4.216-1.973-8.732-2.983-13.435-2.983c-17.502,0-31.741,14.238-31.741,31.739c0,7.808,2.648,14.931,7.639,20.649
	c-0.287,0.664-0.798,2.117-0.798,4.042c0,1.594,0.37,3.504,1.49,5.536C12.326,67.844,6.707,56.621,6.707,44.999 M58.875,16.445
	c-4.342-2.115-9.009-3.185-13.873-3.185c-17.502,0-31.741,14.238-31.741,31.738c0,7.955,2.734,15.208,7.905,20.976l0.544,0.606
	l2.413-3.648l-0.128-0.15c-0.216-0.024-0.395-0.056-0.525-0.085c0.034-0.099,0.081-0.228,0.139-0.374
	c-0.19-0.226-0.38-0.453-0.56-0.684c-0.196,0.312-0.378,0.541-0.505,0.686c-0.471-0.504-1.685-1.973-1.685-3.772
	c0-0.058,0.003-0.115,0.005-0.173c-2.257-3.975-3.402-8.454-3.402-13.382c0-15.184,12.354-27.538,27.54-27.538
	c3.727,0,7.321,0.725,10.703,2.159c0.362-0.375,0.72-0.671,1.053-0.901c-3.703-1.661-7.65-2.516-11.756-2.516
	c-15.879,0-28.8,12.919-28.8,28.796c0,6.886,2.15,12.941,6.359,18.015c-0.245,0.373-0.587,0.891-0.981,1.481
	c-4.608-5.429-7.061-12.14-7.061-19.496c0-16.807,13.674-30.481,30.483-30.481c4.465,0,8.751,0.95,12.762,2.804
	c-0.168,0.364-0.331,0.719-0.496,1.076c0.368-0.207,0.68-0.333,0.891-0.404c0.003,0.014,0.003,0.022,0.003,0.038
	c0,0.469-0.092,1.367-0.635,2.431l0.142,0.07l1.761-3.819L58.875,16.445L58.875,16.445z M58.594,10.224l-3.035,3.838
	c0.279,0.095,0.555,0.194,0.831,0.297l3.011-3.81C59.135,10.437,58.864,10.329,58.594,10.224 M52.654,8.456l-1.768,4.381
	c0.278,0.051,0.557,0.106,0.833,0.164l1.763-4.364C53.207,8.573,52.931,8.514,52.654,8.456 M45.59,7.666l-0.435,4.645
	c0.28,0.001,0.56,0.005,0.838,0.014l0.434-4.636C46.148,7.678,45.87,7.67,45.59,7.666 M38.707,8.191l0.883,4.567
	c0.274-0.046,0.55-0.088,0.826-0.127l-0.883-4.572C39.256,8.1,38.981,8.144,38.707,8.191 M32.027,9.983l2.088,4.191
	c0.266-0.094,0.532-0.185,0.8-0.271L32.821,9.7C32.554,9.792,32.29,9.886,32.027,9.983 M25.692,13.048l3.118,3.56
	c0.246-0.142,0.495-0.279,0.746-0.414l-3.133-3.579C26.177,12.757,25.934,12.901,25.692,13.048 M19.935,17.344l3.935,2.733
	c0.22-0.187,0.444-0.373,0.67-0.553l-3.961-2.752C20.362,16.96,20.148,17.151,19.935,17.344 M15.038,22.738l4.521,1.759
	c0.184-0.229,0.372-0.455,0.562-0.679l-4.555-1.772C15.387,22.276,15.212,22.505,15.038,22.738 M11.256,29.018l4.865,0.678
	c0.14-0.263,0.283-0.525,0.429-0.783l-4.907-0.685C11.511,28.49,11.381,28.752,11.256,29.018 M8.779,35.908l4.959-0.475
	c0.09-0.289,0.182-0.579,0.28-0.866l-5.012,0.479C8.927,35.333,8.851,35.62,8.779,35.908 M7.705,43.125l4.798-1.667
	c0.033-0.31,0.071-0.617,0.113-0.925L7.76,42.221C7.739,42.522,7.72,42.823,7.705,43.125 M8.076,50.414l4.335-2.846
	c-0.025-0.319-0.046-0.639-0.061-0.959L7.947,49.5C7.986,49.806,8.029,50.109,8.076,50.414 M9.924,57.546l3.519-3.875
	c-0.087-0.323-0.166-0.649-0.243-0.975l-3.592,3.956C9.71,56.952,9.815,57.249,9.924,57.546 M13.234,64.362l2.489-4.736
	c-0.156-0.308-0.311-0.616-0.456-0.928l-2.535,4.822C12.896,63.803,13.063,64.084,13.234,64.362 M17.474,70.041l1.331-5.486
	c-0.221-0.29-0.436-0.583-0.646-0.879l-1.358,5.598C17.022,69.532,17.247,69.787,17.474,70.041 M57.972,20.808
	c0.114,0.076,0.228,0.151,0.34,0.227c0.102-0.046,0.203-0.093,0.307-0.131c0.122-0.046,0.243-0.084,0.362-0.123
	c-0.258-0.169-0.499-0.359-0.729-0.56C58.173,20.41,58.078,20.606,57.972,20.808"/>
</svg>
