<?xml version="1.0" encoding="UTF-8" standalone="no"?>
<svg
   width="104"
   height="122.86643"
   fill="none"
   version="1.1"
   id="svg8"
   sodipodi:docname="logo-datasette.svg"
   inkscape:version="1.4.3 (0d15f75042, 2025-12-25)"
   xmlns:inkscape="http://www.inkscape.org/namespaces/inkscape"
   xmlns:sodipodi="http://sodipodi.sourceforge.net/DTD/sodipodi-0.dtd"
   xmlns="http://www.w3.org/2000/svg"
   xmlns:svg="http://www.w3.org/2000/svg">
  <defs
     id="defs8" />
  <sodipodi:namedview
     id="namedview8"
     pagecolor="#ffffff"
     bordercolor="#000000"
     borderopacity="0.25"
     inkscape:showpageshadow="2"
     inkscape:pageopacity="0.0"
     inkscape:pagecheckerboard="0"
     inkscape:deskcolor="#d1d1d1"
     inkscape:zoom="3.4796848"
     inkscape:cx="244.70607"
     inkscape:cy="52.878353"
     inkscape:window-width="3840"
     inkscape:window-height="2085"
     inkscape:window-x="0"
     inkscape:window-y="51"
     inkscape:window-maximized="1"
     inkscape:current-layer="svg8" />
  <mask
     id="a"
     maskUnits="userSpaceOnUse"
     x="122"
     y="0"
     width="625"
     height="108"
     fill="#000000">
    <path
       fill="#ffffff"
       d="M 122,0 H 747 V 108 H 122 Z"
       id="path1" />
    <path
       d="m 166,6 a 42,42 0 0 1 30,13 c 9,9 14,21 14,35 0,14 -5,26 -14,35 a 42,42 0 0 1 -30,13 H 126 V 6 Z m 0,85 c 9,0 18,-3 24,-11 6,-7 9,-16 9,-26 0,-10 -3,-19 -9,-26 -6,-8 -15,-11 -24,-11 h -29 v 74 z m 115,-1 c -6,8 -15,13 -26,13 -10,0 -19,-4 -25,-11 -7,-7 -10,-16 -10,-26 0,-11 3,-20 10,-27 6,-7 15,-10 26,-10 10,0 19,4 25,12 V 30 h 10 v 72 h -10 z m -25,3 c 8,0 14,-3 19,-8 4,-5 6,-12 6,-19 0,-8 -2,-15 -6,-20 -5,-5 -11,-8 -19,-8 -7,0 -14,3 -18,8 -5,5 -7,12 -7,20 0,7 2,14 7,19 4,5 11,8 18,8 z m 62,9 V 39 h -15 v -9 h 15 V 4 h 10 v 26 h 17 v 9 h -17 v 63 z m 93,-12 c -6,8 -14,13 -26,13 -10,0 -18,-4 -25,-11 -6,-7 -9,-16 -9,-26 0,-11 3,-20 9,-27 7,-7 15,-10 26,-10 11,0 19,4 25,12 V 30 h 11 v 72 h -11 z m -24,3 c 8,0 14,-3 18,-8 5,-5 7,-12 7,-19 0,-8 -2,-15 -7,-20 -4,-5 -10,-8 -18,-8 -8,0 -14,3 -19,8 -4,5 -6,12 -6,20 0,7 2,14 6,19 5,5 11,8 19,8 z m 96,-44 c -1,-7 -7,-11 -18,-11 -11,0 -17,3 -17,10 0,3 1,5 3,7 l 9,3 12,3 11,3 c 4,2 7,4 9,7 3,2 4,6 4,10 0,7 -3,13 -8,16 -5,4 -12,6 -21,6 -10,0 -18,-3 -23,-7 -5,-5 -8,-10 -9,-17 h 12 c 0,7 4,11 11,13 l 7,2 7,-1 6,-1 c 5,-2 7,-5 7,-10 0,-3 -1,-5 -4,-7 -2,-1 -5,-3 -8,-3 l -12,-3 -11,-4 c -4,-1 -7,-3 -9,-6 -3,-2 -4,-5 -4,-10 0,-6 3,-11 7,-15 5,-4 12,-5 21,-5 9,0 16,2 21,6 4,3 7,8 7,14 z m 59,44 c 9,0 16,-4 20,-12 h 12 c -2,6 -6,12 -12,16 -5,4 -12,6 -21,6 -10,0 -19,-4 -26,-11 -7,-7 -10,-16 -10,-26 0,-11 3,-20 10,-27 6,-7 15,-10 26,-10 10,0 19,3 26,10 6,7 9,16 9,27 v 4 h -60 c 1,7 4,12 8,16 5,5 10,7 18,7 z m -1,-55 a 24,24 0 0 0 -25,22 h 49 c -1,-6 -3,-12 -8,-15 -4,-5 -10,-7 -16,-7 z m 167,55 c 10,0 17,-4 21,-12 h 12 c -3,6 -7,12 -12,16 -5,4 -12,6 -21,6 -11,0 -19,-4 -26,-11 -7,-7 -10,-16 -10,-26 0,-11 3,-20 9,-27 7,-7 16,-10 26,-10 11,0 20,3 27,10 6,7 9,16 9,27 v 4 h -60 c 1,7 3,12 8,16 4,5 10,7 17,7 z m -1,-55 a 24,24 0 0 0 -24,22 h 49 c -1,-6 -4,-12 -8,-15 -4,-5 -10,-7 -17,-7 z M 601,104 V 42 H 586 V 32 h 15 V 6 h 10 v 26 h 11 v 10 h -11 v 62 z m 35,0 V 42 H 622 V 32 h 14 V 6 h 11 v 26 h 16 v 10 h -16 v 62 z"
       id="path2" />
  </mask>
  <path
     d="m 11.591058,107.61453 a 6.2801959,6.2801959 0 0 1 4.485858,1.94387 c 1.345752,1.34575 2.093392,3.1401 2.093392,5.2335 0,2.09339 -0.74764,3.88774 -2.093392,5.2335 a 6.2801959,6.2801959 0 0 1 -4.485858,1.94386 H 5.6099196 v -14.35473 z m 0,12.70992 c 1.345752,0 2.691513,-0.44859 3.588681,-1.64481 0.897177,-1.0467 1.345761,-2.39246 1.345761,-3.88774 0,-1.49529 -0.448584,-2.84104 -1.345761,-3.88775 -0.897168,-1.19622 -2.242929,-1.6448 -3.588681,-1.6448 H 7.2547365 v 11.0651 z m 17.195775,-0.14952 c -0.897168,1.19622 -2.242929,1.94386 -3.887737,1.94386 -1.495289,0 -2.841042,-0.59811 -3.738218,-1.64481 -1.046697,-1.0467 -1.495281,-2.39246 -1.495281,-3.88774 0,-1.64481 0.448584,-2.99057 1.495281,-4.03727 0.897176,-1.0467 2.242929,-1.49529 3.887746,-1.49529 1.49528,0 2.841041,0.59812 3.738209,1.79435 v -1.64481 h 1.49528 v 10.76604 h -1.49528 z m -3.738209,0.44858 c 1.196224,0 2.093392,-0.44858 2.841041,-1.19623 0.598112,-0.74764 0.897168,-1.79434 0.897168,-2.84104 0,-1.19623 -0.299056,-2.24292 -0.897168,-2.99057 -0.747649,-0.74764 -1.644817,-1.19623 -2.841041,-1.19623 -1.046705,0 -2.093401,0.44859 -2.691514,1.19623 -0.747648,0.74765 -1.046704,1.79434 -1.046704,2.99057 0,1.0467 0.299056,2.0934 1.046704,2.84104 0.598113,0.74765 1.644809,1.19623 2.691514,1.19623 z m 9.270763,1.34575 v -9.42029 h -2.242929 v -1.34575 h 2.242929 v -3.88775 h 1.495281 v 3.88775 h 2.541985 v 1.34575 h -2.541985 v 9.42029 z m 13.90615,-1.79433 c -0.897176,1.19622 -2.093401,1.94386 -3.887746,1.94386 -1.49528,0 -2.691513,-0.59811 -3.738209,-1.64481 -0.897168,-1.0467 -1.345761,-2.39246 -1.345761,-3.88774 0,-1.64481 0.448593,-2.99057 1.345761,-4.03727 1.046696,-1.0467 2.242929,-1.49529 3.887738,-1.49529 1.644816,0 2.841041,0.59812 3.738217,1.79435 v -1.64481 h 1.644809 v 10.76604 h -1.644809 z m -3.588689,0.44858 c 1.196232,0 2.093401,-0.44858 2.691513,-1.19623 0.74764,-0.74764 1.046705,-1.79434 1.046705,-2.84104 0,-1.19623 -0.299065,-2.24292 -1.046705,-2.99057 -0.598112,-0.74764 -1.495281,-1.19623 -2.691513,-1.19623 -1.196225,0 -2.093393,0.44859 -2.841042,1.19623 -0.598112,0.74765 -0.897168,1.79434 -0.897168,2.99057 0,1.0467 0.299056,2.0934 0.897168,2.84104 0.747649,0.74765 1.644817,1.19623 2.841042,1.19623 z m 14.354734,-6.57925 c -0.149528,-1.04671 -1.046697,-1.64482 -2.691513,-1.64482 -1.644809,0 -2.541986,0.44859 -2.541986,1.49528 0,0.4486 0.149528,0.74765 0.448593,1.04671 l 1.345752,0.44858 1.794345,0.44859 1.644809,0.44858 c 0.598112,0.29906 1.046704,0.59811 1.345761,1.0467 0.448584,0.29906 0.598112,0.89717 0.598112,1.49529 0,1.04669 -0.448584,1.94387 -1.196233,2.39245 -0.74764,0.59811 -1.794337,0.89717 -3.140097,0.89717 -1.495281,0 -2.691514,-0.44858 -3.439154,-1.0467 -0.74764,-0.74764 -1.196224,-1.49528 -1.345752,-2.54198 h 1.794336 c 0,1.0467 0.598121,1.64482 1.644817,1.94387 l 1.046697,0.29906 1.046704,-0.14953 0.897169,-0.14953 c 0.74764,-0.29905 1.046696,-0.74765 1.046696,-1.49529 0,-0.44858 -0.149528,-0.74764 -0.598112,-1.04669 -0.299056,-0.14953 -0.747641,-0.44859 -1.196225,-0.44859 l -1.794345,-0.44858 -1.644808,-0.59812 c -0.598121,-0.14953 -1.046705,-0.44859 -1.345761,-0.89717 -0.448584,-0.29906 -0.598112,-0.74764 -0.598112,-1.49528 0,-0.89718 0.448584,-1.64482 1.046696,-2.24293 0.74764,-0.59811 1.794345,-0.74765 3.140098,-0.74765 1.34576,0 2.392457,0.29907 3.140097,0.89718 0.59812,0.44858 1.046705,1.19622 1.046705,2.0934 z m 8.822179,6.57925 c 1.345761,0 2.392458,-0.59811 2.99057,-1.79434 h 1.794345 c -0.299056,0.89716 -0.897169,1.79434 -1.794345,2.39245 -0.74764,0.59811 -1.794337,0.89717 -3.140098,0.89717 -1.49528,0 -2.841041,-0.59811 -3.887737,-1.64481 -1.046705,-1.0467 -1.495289,-2.39246 -1.495289,-3.88774 0,-1.64481 0.448584,-2.99057 1.495289,-4.03727 0.897168,-1.0467 2.242929,-1.49529 3.887737,-1.49529 1.495289,0 2.841042,0.44859 3.887738,1.49529 0.897177,1.0467 1.345761,2.39246 1.345761,4.03727 v 0.59812 h -8.971708 c 0.149528,1.04669 0.598112,1.79433 1.196224,2.39245 0.747649,0.74764 1.495289,1.0467 2.691513,1.0467 z m -0.149528,-8.22407 a 3.5886834,3.5886834 0 0 0 -3.738209,3.28963 h 7.326891 c -0.149528,-0.89717 -0.448584,-1.79435 -1.196224,-2.24293 -0.598113,-0.74764 -1.495289,-1.0467 -2.392458,-1.0467 z m 24.971257,8.22407 c 1.49528,0 2.541985,-0.59811 3.140097,-1.79434 h 1.794336 c -0.448584,0.89716 -1.046696,1.79434 -1.794336,2.39245 -0.74764,0.59811 -1.794345,0.89717 -3.140097,0.89717 -1.644817,0 -2.841039,-0.59811 -3.887744,-1.64481 -1.046696,-1.0467 -1.49528,-2.39246 -1.49528,-3.88774 0,-1.64481 0.448584,-2.99057 1.345752,-4.03727 1.046705,-1.0467 2.392455,-1.49529 3.887744,-1.49529 1.644808,0 2.990569,0.44859 4.037265,1.49529 0.897168,1.0467 1.345753,2.39246 1.345753,4.03727 v 0.59812 h -8.971706 c 0.149528,1.04669 0.448593,1.79433 1.196233,2.39245 0.59811,0.74764 1.495278,1.0467 2.541983,1.0467 z m -0.149528,-8.22407 a 3.5886834,3.5886834 0 0 0 -3.588688,3.28963 h 7.326897 c -0.149528,-0.89717 -0.598112,-1.79435 -1.196224,-2.24293 -0.598121,-0.74764 -1.495289,-1.0467 -2.541985,-1.0467 z m -15.850021,9.86888 v -9.27077 h -2.242929 v -1.49528 h 2.242929 v -3.88774 h 1.495289 v 3.88774 h 1.644809 v 1.49528 H 78.13123 v 9.27077 z m 5.233499,0 v -9.27077 h -2.093401 v -1.49528 h 2.093401 v -3.88774 h 1.644816 v 3.88774 h 2.392449 v 1.49528 h -2.392449 v 9.27077 z"
     fill="#0e0c82"
     fill-opacity="0.3"
     id="path3"
     style="stroke-width:0.149529" />
  <path
     d="m 624,32 a 2,2 0 0 0 -4,0 z m -4,10 a 2,2 0 1 0 4,0 z m 0,-10 v 5 h 4 v -5 z m 0,5 v 5 h 4 v -5 z m -438,-27 -1,3 z m 14,9 -3,3 z m 0,70 -3,-3 z m -14,9 2,4 z m -56,4 h -4 v 4 h 4 z M 126,6 V 2 h -4 v 4 z m 64,74 -3,-2 z m 0,-52 -3,2 z M 137,17 v -4 h -4 v 4 z m 0,74 h -4 v 4 h 4 z m 144,-1 h 4 V 77 l -8,11 z m -51,2 -3,3 z m 0,-53 -3,-2 z m 51,2 -4,3 8,10 V 41 Z m 0,-11 v -4 h -4 v 4 z m 10,0 h 4 v -4 h -4 z m 0,72 v 4 h 4 v -4 z m -10,0 h -4 v 4 h 4 z m -6,-17 -3,-3 z m 0,-39 -3,3 z m -37,0 -3,-2 z m 0,39 -3,3 z m 80,17 h -4 v 4 h 4 z m 0,-63 h 4 v -4 h -4 z m -15,0 h -4 v 4 h 4 z m 0,-9 v -4 h -4 v 4 z m 15,0 v 4 h 4 V 30 Z M 318,4 V 0 h -4 v 4 z m 10,0 h 4 V 0 h -4 z m 0,26 h -4 v 4 h 4 z m 17,0 h 4 v -4 h -4 z m 0,9 v 4 h 4 v -4 z m -17,0 v -4 h -4 v 4 z m 0,63 v 4 h 4 v -4 z m 83,-12 h 4 V 77 l -7,11 z m -51,2 -3,3 z m 0,-53 -3,-2 z m 51,2 -3,3 7,10 V 41 Z m 0,-11 v -4 h -4 v 4 z m 11,0 h 4 v -4 h -4 z m 0,72 v 4 h 4 v -4 z m -11,0 h -4 v 4 h 4 z m -6,-17 -3,-3 z m 0,-39 -3,3 z m -37,0 -3,-2 z m 0,39 -3,3 z M 483,49 h -4 v 4 h 4 z m -32,6 -2,3 z m 9,3 1,-4 z m 12,3 -1,4 z m 11,3 -1,4 z m 9,7 -3,2 z m -4,26 2,4 z m -44,-1 2,-4 z m -9,-17 v -4 h -4 v 4 z m 12,0 h 4 l -1,-4 h -3 z m 11,13 -1,4 z m 14,1 1,4 z m 6,-1 2,3 z m 3,-17 -2,4 z m -8,-3 -1,3 z m -12,-3 -1,4 z m -11,-4 -2,4 z m -9,-6 -3,3 z m 3,-25 3,3 z m 42,1 3,-3 z m 7,14 v 4 h 5 l -1,-4 z m 69,32 v -4 h -2 l -1,2 z m 12,0 4,1 2,-5 h -6 z m -12,16 -2,-4 z m -47,-5 -3,3 z m 0,-53 -3,-2 z m 52,0 3,-2 z m 9,31 v 4 h 4 v -4 z m -60,0 v -4 h -4 v 4 z m 8,16 3,-3 z m 0,-41 -3,-3 z m -8,15 -4,-1 v 5 h 4 z m 49,0 v 4 h 5 l -1,-5 z m -8,-15 3,-3 z m 172,36 v -4 h -2 l -1,2 z m 12,0 4,1 2,-5 h -6 z m -12,16 -2,-4 z m -47,-5 -3,3 z m -1,-53 -3,-2 z m 53,0 2,-2 z m 9,31 v 4 h 4 v -4 z m -60,0 v -4 h -5 l 1,4 z m 8,16 3,-3 z m 0,-41 -3,-3 z m -8,15 -4,-1 -1,5 h 5 z m 49,0 v 4 h 4 v -5 z m -8,-15 3,-3 z m -123,59 h -4 v 4 h 4 z m 0,-62 h 4 v -4 h -4 z m -15,0 h -4 v 4 h 4 z m 0,-10 v -4 h -4 v 4 z m 15,0 v 4 h 4 V 32 Z M 601,6 V 2 h -4 v 4 z m 10,0 h 4 V 2 h -4 z m 0,26 h -4 v 4 h 4 z m 0,10 v -4 h -4 v 4 z m 0,62 v 4 h 4 v -4 z m 25,0 h -4 v 4 h 4 z m 0,-62 h 4 v -4 h -4 z m 0,-10 v 4 h 4 V 32 Z M 636,6 V 2 h -4 v 4 z m 11,0 h 4 V 2 h -4 z m 0,26 h -4 v 4 h 4 z m 16,0 h 4 v -4 h -4 z m 0,10 v 4 h 4 v -4 z m -16,0 v -4 h -4 v 4 z m 0,62 v 4 h 4 v -4 z m -481,-94 15,3 3,-7 C 178,4 172,2 166,2 Z m 15,3 c 5,2 9,5 12,9 l 6,-6 C 195,12 190,8 184,6 Z m 12,9 c 8,8 13,19 13,32 h 8 c 0,-15 -5,-28 -15,-38 z m 13,32 c 0,13 -5,24 -13,32 l 6,6 c 10,-10 15,-23 15,-38 z m -13,32 c -3,4 -7,7 -12,9 l 3,7 c 6,-2 11,-6 15,-10 z m -12,9 -15,3 v 8 c 6,0 12,-2 18,-4 z m -15,3 h -40 v 8 h 40 z m -36,4 V 6 h -8 v 96 z m -4,-92 h 40 V 2 h -40 z m 40,85 c 11,0 20,-4 27,-12 l -6,-5 c -6,6 -13,9 -21,9 z m 27,-12 c 7,-8 10,-18 10,-29 h -8 c 0,10 -3,17 -8,24 z m 10,-29 c 0,-11 -3,-21 -10,-29 l -6,5 c 5,7 8,14 8,24 z M 193,25 C 186,17 177,13 166,13 v 8 c 8,0 15,3 21,9 z M 166,13 h -29 v 8 h 29 z m -33,4 v 74 h 8 V 17 Z m 4,78 h 29 v -8 h -29 z m 140,-7 c -5,7 -12,11 -22,11 v 8 c 12,0 22,-5 29,-15 z m -22,11 c -9,0 -17,-3 -22,-10 l -6,6 c 7,8 17,12 28,12 z M 233,89 c -6,-6 -9,-14 -9,-23 h -8 c 0,11 4,21 11,29 z m -9,-23 c 0,-10 3,-18 9,-24 l -6,-5 c -7,8 -11,17 -11,29 z m 9,-24 c 5,-6 13,-9 23,-9 v -8 c -12,0 -22,4 -29,12 z m 23,-9 c 9,0 16,3 21,11 l 7,-5 C 277,29 268,25 256,25 Z m 29,8 V 30 h -8 v 11 z m -4,-7 h 10 v -8 h -10 z m 6,-4 v 72 h 8 V 30 Z m 4,68 h -10 v 8 h 10 z m -6,4 V 90 h -8 v 12 z m -29,-5 c 9,0 16,-3 22,-10 l -6,-5 c -4,5 -9,7 -16,7 z m 22,-10 c 5,-5 7,-13 7,-21 h -8 c 0,7 -2,12 -5,16 z m 7,-21 c 0,-9 -2,-16 -7,-22 l -6,5 c 3,4 5,10 5,17 z M 278,44 C 272,37 265,34 256,34 v 8 c 7,0 12,3 16,7 z M 256,34 c -8,0 -16,3 -21,10 l 6,5 c 4,-4 9,-7 15,-7 z m -21,10 c -6,6 -8,13 -8,22 h 8 c 0,-7 2,-13 6,-17 z m -8,22 c 0,8 2,16 8,22 l 6,-6 c -4,-4 -6,-9 -6,-16 z m 8,22 c 5,6 13,9 21,9 v -8 c -6,0 -11,-2 -15,-7 z m 87,14 V 39 h -8 v 63 z m -4,-67 h -15 v 8 h 15 z m -11,4 v -9 h -8 v 9 z m -4,-5 h 15 v -8 h -15 z m 19,-4 V 4 h -8 V 30 Z M 318,8 h 10 V 0 h -10 z m 6,-4 v 26 h 8 V 4 Z m 4,30 h 17 v -8 h -17 z m 13,-4 v 9 h 8 v -9 z m 4,5 h -17 v 8 h 17 z m -21,4 v 63 h 8 V 39 Z m 4,59 h -10 v 8 h 10 z m 80,-10 c -5,7 -12,11 -23,11 v 8 c 13,0 23,-5 29,-15 z m -23,11 c -9,0 -16,-3 -22,-10 l -6,6 c 8,8 17,12 28,12 z M 363,89 c -5,-6 -8,-14 -8,-23 h -8 c 0,11 3,21 10,29 z m -8,-23 c 0,-10 3,-18 8,-24 l -6,-5 c -7,8 -10,17 -10,29 z m 8,-24 c 6,-6 13,-9 23,-9 v -8 c -12,0 -21,4 -29,12 z m 23,-9 c 10,0 17,3 22,11 l 6,-5 C 408,29 398,25 386,25 Z m 29,8 V 30 h -8 v 11 z m -4,-7 h 11 v -8 h -11 z m 7,-4 v 72 h 8 V 30 Z m 4,68 h -11 v 8 h 11 z m -7,4 V 90 h -8 v 12 z m -28,-5 c 9,0 16,-3 21,-10 l -6,-5 c -3,5 -8,7 -15,7 z m 21,-10 c 5,-5 8,-13 8,-21 h -8 c 0,7 -2,12 -6,16 z m 8,-21 c 0,-9 -3,-16 -8,-22 l -6,5 c 4,4 6,10 6,17 z M 408,44 C 403,37 396,34 387,34 v 8 c 7,0 12,3 15,7 z M 387,34 c -9,0 -16,3 -22,10 l 6,5 c 4,-4 9,-7 16,-7 z m -22,10 c -5,6 -7,13 -7,22 h 8 c 0,-7 2,-13 5,-17 z m -7,22 c 0,8 2,16 7,22 l 6,-6 c -3,-4 -5,-9 -5,-16 z m 7,22 c 6,6 13,9 22,9 v -8 c -7,0 -12,-2 -16,-7 z M 487,48 c -1,-4 -3,-8 -8,-11 -3,-2 -9,-3 -14,-3 v 8 l 10,2 4,5 z M 465,34 c -6,0 -11,1 -15,3 -4,2 -6,6 -6,11 h 8 l 2,-4 c 2,-1 5,-2 11,-2 z m -21,14 c 0,4 2,8 5,10 l 5,-7 c -1,0 -2,-1 -2,-3 z m 5,10 10,4 2,-8 c -3,0 -5,-2 -7,-3 z m 10,4 12,3 2,-8 -12,-3 z m 12,3 11,3 3,-7 -12,-4 z m 11,3 7,5 6,-5 c -3,-3 -6,-6 -10,-7 z m 7,5 c 2,2 3,4 3,8 h 8 c 0,-5 -2,-10 -5,-13 z m 3,8 c 0,6 -2,10 -6,13 l 4,7 c 7,-5 10,-12 10,-20 z m -6,13 c -5,3 -11,5 -19,5 v 8 c 9,0 17,-2 23,-6 z m -19,5 c -9,0 -16,-3 -21,-7 l -5,7 c 7,5 15,8 26,8 z m -21,-7 c -4,-3 -6,-8 -7,-13 h -8 c 1,8 4,15 10,20 z m -11,-9 h 12 v -8 h -12 z m 8,-4 c 0,4 1,8 4,11 2,3 6,5 10,6 l 2,-7 -6,-4 -2,-6 z m 14,17 8,2 v -8 l -6,-1 z m 8,2 8,-1 -2,-8 -6,1 z m 8,-1 7,-2 -3,-7 -6,1 z m 7,-2 7,-5 2,-8 h -8 l -1,3 -3,3 z m 9,-13 c 0,-4 -2,-8 -5,-10 l -5,7 c 1,1 2,1 2,3 z m -5,-10 -10,-4 -2,7 7,4 z m -10,-4 -12,-3 -2,8 12,2 z m -12,-3 -11,-3 -3,7 12,4 z m -11,-3 -7,-5 -6,5 10,7 z m -7,-5 c -2,-2 -3,-4 -3,-8 h -8 c 0,5 2,10 5,13 z m -3,-8 c 0,-5 2,-9 6,-12 l -5,-6 c -6,4 -9,11 -9,18 z m 6,-12 c 4,-3 10,-4 18,-4 v -8 c -9,0 -17,1 -23,6 z m 18,-4 c 9,0 14,2 19,5 l 5,-6 c -6,-5 -14,-7 -24,-7 z m 19,5 c 3,3 5,7 6,11 h 7 c 0,-7 -3,-13 -8,-17 z m 9,7 h -10 v 8 h 10 z m 49,52 c 5,0 10,-1 14,-4 4,-2 7,-6 10,-10 l -7,-4 c -2,3 -4,6 -7,7 -3,2 -6,3 -10,3 z m 20,-12 h 12 v -8 h -12 z m 8,-6 c -2,6 -5,11 -10,14 l 5,7 c 6,-5 10,-11 13,-18 z m -10,14 c -5,4 -11,6 -19,6 v 8 c 10,0 17,-2 24,-7 z m -19,6 c -9,0 -17,-4 -23,-10 l -6,6 c 8,8 18,12 29,12 z M 518,89 c -6,-6 -9,-14 -9,-23 h -8 c 0,11 4,21 11,29 z m -9,-23 c 0,-10 3,-18 9,-24 l -6,-5 c -7,7 -11,17 -11,29 z m 9,-24 c 5,-6 13,-9 23,-9 v -8 c -12,0 -22,4 -29,12 z m 23,-9 c 9,0 17,3 23,9 l 6,-5 C 562,29 552,25 541,25 Z m 23,9 c 5,6 8,14 8,24 h 8 c 0,-12 -3,-22 -10,-29 z m 8,24 v 4 h 8 v -4 z m 4,0 h -60 v 8 h 60 z m -64,4 c 1,8 4,14 9,19 l 6,-6 c -4,-3 -6,-8 -7,-14 z m 9,19 c 6,5 13,8 21,8 v -8 c -7,0 -11,-2 -15,-6 z m 20,-55 c -8,0 -14,3 -20,8 l 6,5 c 3,-3 8,-5 14,-5 z m -20,8 c -5,4 -8,10 -9,17 l 8,1 c 1,-5 3,-9 7,-13 z m -5,22 h 49 v -8 h -49 z m 53,-5 c -1,-7 -4,-13 -9,-17 l -5,5 c 3,4 5,8 6,13 z m -9,-17 c -5,-5 -12,-8 -19,-8 v 8 c 5,0 10,2 14,5 z m 148,55 c 6,0 11,-1 15,-4 4,-2 7,-6 10,-10 l -7,-4 -7,7 c -3,2 -6,3 -11,3 z m 21,-12 h 12 v -8 h -12 z m 8,-6 c -2,6 -6,11 -10,14 l 4,7 c 6,-5 11,-11 14,-18 z m -10,14 c -5,4 -11,6 -19,6 v 8 c 9,0 17,-2 23,-7 z m -19,6 c -10,0 -17,-4 -23,-10 l -6,6 c 8,8 17,12 29,12 z M 685,89 c -6,-6 -9,-14 -9,-23 h -8 c 0,11 4,21 11,29 z m -9,-23 c 0,-10 3,-18 8,-24 l -6,-5 c -7,7 -10,17 -10,29 z m 8,-24 c 6,-6 14,-9 23,-9 v -8 c -11,0 -21,4 -29,12 z m 23,-9 c 10,0 18,3 24,9 l 5,-5 C 729,29 719,25 707,25 Z m 24,9 c 5,6 8,14 8,24 h 8 c 0,-12 -3,-22 -11,-29 z m 8,24 v 4 h 8 v -4 z m 4,0 h -60 v 8 h 60 z m -64,4 c 1,8 4,14 9,19 l 6,-6 c -4,-3 -6,-8 -7,-14 z m 9,19 c 5,5 12,8 20,8 v -8 c -6,0 -11,-2 -14,-6 z m 19,-55 c -7,0 -14,3 -19,8 l 6,5 c 3,-3 8,-5 13,-5 z m -19,8 c -5,4 -8,10 -9,17 l 8,1 c 1,-5 3,-9 7,-13 z m -5,22 h 49 v -8 h -49 z m 53,-5 c -1,-7 -4,-13 -9,-17 l -6,5 c 4,4 6,8 7,13 z m -9,-17 c -6,-5 -12,-8 -20,-8 v 8 c 6,0 11,2 14,5 z M 605,104 V 42 h -8 v 62 z m -4,-66 h -15 v 8 h 15 z m -11,4 V 32 h -8 v 10 z m -4,-6 h 15 v -8 h -15 z m 19,-4 V 6 h -8 v 26 z m -4,-22 h 10 V 2 h -10 z m 6,-4 v 26 h 8 V 6 Z m 4,30 h 11 v -8 h -11 z m 11,2 h -11 v 8 h 11 z m -15,4 v 62 h 8 V 42 Z m 4,58 h -10 v 8 h 10 z m 29,4 V 42 h -8 v 62 z m -4,-66 h -14 v 8 h 14 z m -14,-2 h 14 v -8 h -14 z m 18,-4 V 6 h -8 v 26 z m -4,-22 h 11 V 2 h -11 z m 7,-4 v 26 h 8 V 6 Z m 4,30 h 16 v -8 h -16 z m 12,-4 v 10 h 8 V 32 Z m 4,6 h -16 v 8 h 16 z m -20,4 v 62 h 8 V 42 Z m 4,58 h -11 v 8 h 11 z"
     fill="#0e0c82"
     mask="url(#a)"
     id="path4"
     transform="matrix(0.14952847,0,0,0.14952847,-13.291438,106.71736)" />
  <path
     d="M 2,17 H 102"
     stroke="#0e0c82"
     stroke-width="4"
     stroke-linecap="round"
     stroke-linejoin="round"
     id="path5" />
  <path
     d="M 19,102 V 19 m 16,81 V 17 m 17,83 V 17 m 17,85 V 19 m 16,83 V 19"
     stroke="#0e0c82"
     stroke-opacity="0.3"
     stroke-width="4"
     stroke-linecap="round"
     stroke-linejoin="round"
     id="path6" />
  <path
     d="M 100,52 H 2 m 98,34 H 2 M 100,69 H 2 M 102,35 H 4 M 102,17 H 4 M 91,2 H 13 C 7,2 2,7 2,13 v 78 c 0,6 5,11 11,11 h 78 c 6,0 11,-5 11,-11 V 13 C 102,7 97,2 91,2 Z"
     stroke="#0e0c82"
     stroke-width="4"
     stroke-linecap="round"
     stroke-linejoin="round"
     id="path7" />
  <path
     d="M 102,17 H 2 C 3,6 5,2 16,2 h 71 c 12,0 15,4 15,15 z"
     fill="#0e0c82"
     fill-opacity="0.3"
     id="path8" />
</svg>
